<svg id="Group_1_copy" data-name="Group 1 copy" xmlns="http://www.w3.org/2000/svg" width="4096" height="4096" viewBox="0 0 4096 4096">
  <defs>
    <style>
      .cls-1 {
        fill: #fff;
      }

      .cls-1, .cls-2, .cls-3, .cls-4 {
        fill-rule: evenodd;
      }

      .cls-2 {
        fill: #e72831;
      }

      .cls-4 {
        fill: #424242;
      }
    </style>
  </defs>
  <path id="Arrow_9_1_copy_4" data-name="Arrow 9 1 copy 4" class="cls-1" d="M618.25,3855.48L12.75,4904.24l-277.288-159.7,4.921,1271.45L843.961,5384.53,567.872,5224.74l605.5-1048.76Z"/>
  <path id="Arrow_9_1_copy_7" data-name="Arrow 9 1 copy 7" class="cls-1" d="M-490.263,3215.48l-605.5,1048.76-277.29-159.7,4.92,1271.45,1103.579-631.46L-540.64,4584.74,64.86,3535.98Z"/>
  <path id="Arrow_9_1_copy_4-2" data-name="Arrow 9 1 copy 4" class="cls-2" d="M1773.25,1854.96l-605.5,1048.76-277.288-159.7,4.921,1271.46L1998.96,3384.01l-276.09-159.79,605.5-1048.76Z"/>
  <path id="Arrow_9_1_copy_5" data-name="Arrow 9 1 copy 5" class="cls-2" d="M2881.76,2494.96l-605.5,1048.76-277.29-159.7,4.93,1271.46,1103.57-631.47-276.09-159.79,605.5-1048.76Z"/>
  <path id="Arrow_9_1_copy_6" data-name="Arrow 9 1 copy 6" class="cls-2" d="M3990.28,3134.96l-605.5,1048.76-277.29-159.7,4.92,1271.46,1103.58-631.47L3939.9,4504.22l605.5-1048.76Z"/>
  <path id="Arrow_9_1_copy_7-2" data-name="Arrow 9 1 copy 7" class="cls-2" d="M664.737,1214.96L59.238,2263.72l-277.288-159.7,4.922,1271.46L890.449,2744.01,614.36,2584.22l605.5-1048.76Z"/>
  <path id="Arrow_9_1_copy_8" data-name="Arrow 9 1 copy 8" class="cls-2" d="M-443.775,574.963l-605.5,1048.757-277.28-159.7,4.92,1271.46,1103.576-631.47-276.089-159.79,605.5-1048.757Z"/>
  <path id="Arrow_9_1_copy_4-3" data-name="Arrow 9 1 copy 4" class="cls-3" d="M12.75,4904.24l605.5-1048.76,277.288,159.7-4.921-1271.46L-212.961,3375.19,63.128,3534.98l-605.5,1048.76Z"/>
  <path id="Arrow_9_1_copy_7-3" data-name="Arrow 9 1 copy 7" class="cls-3" d="M1121.26,5544.24l605.5-1048.76,277.29,159.7-4.92-1271.46L895.551,4015.19l276.089,159.79L566.14,5223.74Z"/>
  <path id="Arrow_9_1_copy_8-2" data-name="Arrow 9 1 copy 8" class="cls-3" d="M2229.78,6184.24l605.5-1048.76,277.28,159.7-4.92-1271.46L2004.06,4655.19l276.09,159.79-605.5,1048.76Z"/>
  <path id="Arrow_9_1_copy_4-4" data-name="Arrow 9 1 copy 4" class="cls-4" d="M1167.75,2903.72l605.5-1048.76,277.29,159.7-4.92-1271.454L942.039,1374.67l276.091,159.79-605.5,1048.76Z"/>
  <path id="Arrow_9_1_copy_5-2" data-name="Arrow 9 1 copy 5" class="cls-4" d="M59.238,2263.72l605.5-1048.76,277.289,159.7L937.1,103.206-166.474,734.668,109.615,894.463l-605.5,1048.757Z"/>
  <path id="Arrow_9_1_copy_6-2" data-name="Arrow 9 1 copy 6" class="cls-4" d="M-1049.28,1623.72L-443.775,574.963l277.288,159.7-4.921-1271.454L-1274.99,94.668-998.9,254.463-1604.4,1303.22Z"/>
  <path id="Arrow_9_1_copy_7-4" data-name="Arrow 9 1 copy 7" class="cls-4" d="M2276.26,3543.72l605.5-1048.76,277.29,159.7-4.92-1271.45L2050.55,2014.67l276.09,159.79-605.5,1048.76Z"/>
  <path id="Arrow_9_1_copy_8-3" data-name="Arrow 9 1 copy 8" class="cls-4" d="M3384.78,4183.72l605.5-1048.76,277.28,159.7-4.92-1271.45L3159.06,2654.67l276.09,159.79-605.5,1048.76Z"/>
  <path id="Arrow_9_1_copy_4-5" data-name="Arrow 9 1 copy 4" class="cls-1" d="M2928.25-145.556L2322.75,903.2,2045.46,743.5l4.92,1271.457L3153.96,1383.5l-276.09-159.8,605.5-1048.756Z"/>
  <path id="Arrow_9_1_copy_5-3" data-name="Arrow 9 1 copy 5" class="cls-1" d="M4036.76,494.444L3431.26,1543.2l-277.29-159.7,4.93,1271.46L4262.47,2023.5l-276.09-159.8,605.5-1048.756Z"/>
  <path id="Arrow_9_1_copy_7-5" data-name="Arrow 9 1 copy 7" class="cls-1" d="M1819.74-785.556L1214.24,263.2,936.949,103.5l4.922,1271.457L2045.45,743.5,1769.36,583.7l605.5-1048.757Z"/>
  <path id="Arrow_9_1_copy_8-4" data-name="Arrow 9 1 copy 8" class="cls-1" d="M711.225-1425.56L105.725-376.8-171.563-536.5l4.921,1271.455L936.936,103.5,660.847-56.3l605.5-1048.761Z"/>
  <path id="Arrow_9_1_copy_4-6" data-name="Arrow 9 1 copy 4" class="cls-2" d="M4083.25-2146.07l-605.5,1048.75-277.29-159.7,4.92,1271.459L4308.96-617.023,4032.87-776.818l605.5-1048.752Z"/>
  <path id="Arrow_9_1_copy_4-7" data-name="Arrow 9 1 copy 4" class="cls-3" d="M2322.75,903.2l605.5-1048.757,277.29,159.7-4.92-1271.452L2097.04-625.851l276.09,159.8L1767.63,582.7Z"/>
  <path id="Arrow_9_1_copy_5-4" data-name="Arrow 9 1 copy 5" class="cls-3" d="M1214.24,263.2l605.5-1048.757,277.29,159.7L2092.1-1897.31,988.526-1265.85l276.094,159.79L659.115-57.3Z"/>
  <path id="Arrow_9_1_copy_7-6" data-name="Arrow 9 1 copy 7" class="cls-3" d="M3431.26,1543.2l605.5-1048.756,277.29,159.7-4.92-1271.455L3205.55,14.149l276.09,159.795L2876.14,1222.7Z"/>
  <path id="Arrow_9_1_copy_8-5" data-name="Arrow 9 1 copy 8" class="cls-3" d="M4539.78,2183.2l605.5-1048.76,277.28,159.7L5417.64,22.687,4314.06,654.149l276.09,159.795L3984.65,1862.7Z"/>
</svg>
